Coordinates
version=1
nRows=4
nColumns=63
inDegrees=yes

Units are S.I. units (second, meters, Newtons, ...)
If the header above contains a line with 'inDegrees', this indicates whether rotational values are in degrees (yes) or radians (no).

endheader
time	pelvis_tilt	pelvis_list	pelvis_rotation	pelvis_tx	pelvis_ty	pelvis_tz	hip_flexion_r	hip_adduction_r	hip_rotation_r	knee_angle_r	knee_angle_r_beta	ankle_angle_r	subtalar_angle_r	mtp_angle_r	hip_flexion_l	hip_adduction_l	hip_rotation_l	knee_angle_l	knee_angle_l_beta	ankle_angle_l	subtalar_angle_l	mtp_angle_l	L5_S1_Flex_Ext	L5_S1_Lat_Bending	L5_S1_axial_rotation	L4_L5_Flex_Ext	L4_L5_Lat_Bending	L4_L5_axial_rotation	L3_L4_Flex_Ext	L3_L4_Lat_Bending	L3_L4_axial_rotation	L2_L3_Flex_Ext	L2_L3_Lat_Bending	L2_L3_axial_rotation	L1_L2_Flex_Ext	L1_L2_Lat_Bending	L1_L2_axial_rotation	L1_T12_Flex_Ext	L1_T12_Lat_Bending	L1_T12_axial_rotation	Abs_r3	Abs_r2	Abs_r1	Abs_t1	Abs_t2	neck_flexion	neck_bending	neck_rotation	arm_flex_r	arm_add_r	arm_rot_r	elbow_flex_r	pro_sup_r	wrist_flex_r	wrist_dev_r	arm_flex_l	arm_add_l	arm_rot_l	elbow_flex_l	pro_sup_l	wrist_flex_l	wrist_dev_l
      4.06779661	     -0.79810107	     -1.86631122	     94.40902775	      0.09788675	      0.96971344	      0.46433863	     -2.47329068	     -0.31354264	      9.32220257	      3.37396764	      0.05888684	     22.96423796	     -6.37726778	      0.00000000	     -1.04178925	     -2.33061658	      5.12559832	      5.91087039	      0.10316415	     22.41057914	    -13.73227222	      0.00000000	      0.17310414	     -0.32548227	      1.40924789	      0.32147169	     -0.43289143	      1.49732589	      0.28439278	     -0.79137760	      1.49732589	      0.19784072	     -0.79137760	      1.23309191	      0.16074450	     -0.66372345	      1.14501391	      0.09891170	     -0.50417204	      1.05693592	      1.23646553	     -3.68192059	      7.83781400	      0.00000000	      0.00000000	     23.70939808	      4.63446590	     10.31815910	     28.08731898	     -1.70427147	     97.99475811	     35.28902806	     88.21848833	     15.10898791	      8.97702516	     20.01363489	     -5.07076727	     67.02749061	     38.45164581	     80.21329138	     11.32867930	     14.39270697
      4.08474576	     -0.76609272	     -1.90209617	     94.51296404	      0.09767770	      0.96971563	      0.46394261	     -2.68374439	     -0.21630816	     11.89499369	      2.90775106	      0.05074983	     21.84142728	    -10.27954499	      0.00000000	     -1.05387637	     -2.32691083	      5.86386112	      5.85809473	      0.10224304	     21.81049589	    -14.59402876	      0.00000000	      0.17309634	     -0.32092102	      1.37708276	      0.32145721	     -0.42682496	      1.46315043	      0.28437997	     -0.78028738	      1.46315043	      0.19783180	     -0.78028738	      1.20494741	      0.16073726	     -0.65442215	      1.11887974	      0.09890725	     -0.49710667	      1.03281207	      1.23640983	     -3.63032280	      7.65892118	      0.00000000	      0.00000000	     24.20506611	      4.27908322	      9.91358398	     27.88067613	     -2.04296474	     97.00699818	     36.23329098	     88.07041529	     14.44994106	     11.18238094	     19.57335577	     -4.97837147	     65.66199407	     38.60503480	     79.60632543	     11.18077882	     15.08042042
      4.10169492	     -0.69588185	     -1.93282414	     94.59216700	      0.09745879	      0.96970430	      0.46374062	     -2.69517513	     -0.13391807	     12.30676380	      2.80383247	      0.04893611	     21.74121316	    -10.87208394	      0.00000000	     -1.03871409	     -2.36595606	      6.30863608	      5.88883088	      0.10277949	     21.15286862	    -15.17280298	      0.00000000	      0.17866946	     -0.31092915	      1.34845936	      0.33180706	     -0.41353577	      1.43273808	      0.29353606	     -0.75599314	      1.43273808	      0.20420133	     -0.75599314	      1.17990194	      0.16591246	     -0.63404673	      1.09562323	      0.10209173	     -0.48162926	      1.01134452	      1.27621811	     -3.51729276	      7.49972645	      0.00000000	      0.00000000	     24.47999599	      4.04285619	      9.66021777	     27.76448637	     -2.27101897	     96.66816228	     36.75885585	     88.04065830	     13.55069177	     11.85965626	     19.40864541	     -4.88746210	     65.43738429	     38.59431128	     77.45937353	     10.52656839	     15.65966372
      4.11864407	     -0.60916141	     -1.97551735	     94.65697889	      0.09720972	      0.96969563	      0.46369385	     -2.60261840	     -0.05489526	     11.72339258	      2.84083414	      0.04958191	     22.13027540	     -9.86054138	      0.00000000	     -0.98272708	     -2.42061247	      6.72370424	      5.98153439	      0.10439747	     20.52094083	    -15.66273325	      0.00000000	      0.18814731	     -0.30249467	      1.33113807	      0.34940837	     -0.40231792	      1.41433419	      0.30910721	     -0.73548555	      1.41433419	      0.21503356	     -0.73548555	      1.16474581	      0.17471359	     -0.61684714	      1.08154968	      0.10750737	     -0.46856425	      0.99835355	      1.34391741	     -3.42188026	      7.40339058	      0.00000000	      0.00000000	     24.63139236	      3.67407957	      8.97070700	     27.61577702	     -2.48430866	     96.39143246	     37.05963930	     88.13375444	     12.90227059	     11.81595299	     19.49455015	     -4.75983135	     66.08439965	     38.35513531	     74.26446082	      9.89648901	     16.07212096
